<svg width="44" height="44" viewBox="0 0 44 44" fill="none" xmlns="http://www.w3.org/2000/svg">
<rect width="44" height="44" rx="22" fill="#FFE0E3"/>
<path d="M14.0115 30.918H29.9893C30.2488 30.9179 30.5038 30.8506 30.7295 30.7224C30.9552 30.5943 31.1438 30.4099 31.2768 30.1871C31.4099 29.9643 31.4829 29.7108 31.4886 29.4513C31.4944 29.1919 31.4328 28.9354 31.3097 28.7069L23.3213 13.8709C22.7546 12.8191 21.2461 12.8191 20.6794 13.8709L12.691 28.7069C12.568 28.9354 12.5063 29.1919 12.5121 29.4513C12.5179 29.7108 12.5908 29.9643 12.7239 30.1871C12.8569 30.4099 13.0455 30.5943 13.2712 30.7224C13.4969 30.8506 13.7519 30.9179 14.0115 30.918Z" stroke="#DE3737" stroke-width="2" stroke-linecap="round" stroke-linejoin="round"/>
<path d="M21.7306 19.1589L21.9997 24.8777L22.2683 19.1613C22.27 19.1247 22.2642 19.0882 22.2512 19.054C22.2383 19.0198 22.2185 18.9885 22.1931 18.9622C22.1677 18.9359 22.1372 18.915 22.1035 18.9009C22.0697 18.8868 22.0335 18.8796 21.9969 18.88C21.961 18.8804 21.9255 18.8879 21.8925 18.9022C21.8595 18.9165 21.8297 18.9373 21.8049 18.9633C21.7801 18.9893 21.7607 19.02 21.748 19.0536C21.7352 19.0872 21.7293 19.123 21.7306 19.1589Z" stroke="#DE3737" stroke-width="2" stroke-linecap="round" stroke-linejoin="round"/>
<path d="M22 28.6211C21.8146 28.6211 21.6333 28.5661 21.4792 28.4631C21.325 28.3601 21.2048 28.2137 21.1339 28.0424C21.0629 27.8711 21.0443 27.6826 21.0805 27.5007C21.1167 27.3188 21.206 27.1518 21.3371 27.0207C21.4682 26.8896 21.6352 26.8003 21.8171 26.7641C21.999 26.7279 22.1875 26.7465 22.3588 26.8175C22.5301 26.8884 22.6765 27.0086 22.7795 27.1627C22.8825 27.3169 22.9375 27.4982 22.9375 27.6836C22.9375 27.9322 22.8387 28.1707 22.6629 28.3465C22.4871 28.5223 22.2486 28.6211 22 28.6211Z" fill="#DE3737"/>
</svg>
