<svg width="44" height="44" viewBox="0 0 44 44" fill="none" xmlns="http://www.w3.org/2000/svg">
<rect width="44" height="44" rx="22" fill="#ABDEB1"/>
<path d="M18.6528 21.3845L21.2222 23.954L25.3333 19.8429M31.5 21.8984C31.5 23.1132 31.2607 24.316 30.7959 25.4383C30.331 26.5605 29.6497 27.5802 28.7907 28.4392C27.9318 29.2981 26.9121 29.9795 25.7898 30.4443C24.6676 30.9092 23.4647 31.1484 22.25 31.1484C21.0353 31.1484 19.8324 30.9092 18.7102 30.4443C17.5879 29.9795 16.5682 29.2981 15.7093 28.4392C14.8503 27.5802 14.169 26.5605 13.7041 25.4383C13.2393 24.316 13 23.1132 13 21.8984C13 19.4452 13.9746 17.0924 15.7093 15.3577C17.444 13.623 19.7967 12.6484 22.25 12.6484C24.7033 12.6484 27.056 13.623 28.7907 15.3577C30.5254 17.0924 31.5 19.4452 31.5 21.8984Z" stroke="#2DAC3E" stroke-width="2" stroke-linecap="round" stroke-linejoin="round"/>
</svg>
