<svg width="206" height="39" viewBox="0 0 206 39" fill="none" xmlns="http://www.w3.org/2000/svg">
<path d="M116.044 0V19.8516H121.08V23.1219H116.044V30.1279H111.925V23.4725L111.581 23.1219H93.8423V19.5029L111.81 0.00194966H116.044V0ZM111.925 5.60371L97.9619 19.8496H111.925V5.60371Z" fill="#FF8500"/>
<path d="M162.23 8.0054C168.718 7.25746 176.083 9.77981 177.559 16.9904C179.604 26.9844 170.165 32.3115 161.542 30.763C147.681 28.2738 148.574 9.57724 162.23 8.00345V8.0054ZM162.911 11.7373C159.902 12.1522 156.552 14.6648 156.119 17.8864C154.523 29.756 172.248 30.0735 173.268 20.6697C173.968 14.2071 168.694 10.9407 162.911 11.7373Z" fill="#342D23"/>
<path d="M187.459 8.40674V21.8346C187.459 22.2397 188.076 24.0161 188.328 24.4524C190.804 28.755 198.068 27.972 200.236 23.6616C200.393 23.3519 200.964 21.8112 200.964 21.6028V8.40869H205.083C205.375 15.6875 204.329 23.2565 206 30.3619H201.651L201.08 27.0935C197.632 32.3058 187.379 32.5161 184.363 26.8676C184.113 26.4001 183.341 24.5673 183.341 24.1738V8.41063H187.461L187.459 8.40674Z" fill="#342D23"/>
<path d="M128.976 8.40674L137.214 25.4574L144.884 8.40674H149.233L135.156 39.0002H131.15L134.776 30.7651L124.513 8.40674H128.976Z" fill="#342D23"/>
<path d="M71.5238 8.64038L79.4234 25.6891L87.5464 8.64038H91.7806L77.7034 39.0001H73.6983L77.3235 30.765L67.0605 8.64038H71.5238Z" fill="#342D23"/>
<path d="M9.33327 8.01112C13.285 7.74038 17.6204 9.43298 19.4454 13.1961L15.6655 14.6569C14.0677 11.6904 10.3317 10.4653 7.26388 11.7372C4.7745 12.7695 4.91003 15.286 7.24477 16.5404C11.0609 18.5894 20.5469 17.9914 20.3484 24.3703C20.0697 33.3807 2.51611 32.7671 0 25.1047L3.72835 23.8523C5.96001 27.068 9.9957 28.7489 13.726 27.2043C16.895 25.8935 16.4005 23.1335 13.3232 22.0175C9.70744 20.7047 2.99528 20.5859 1.48523 16.1138C-0.217624 11.0691 5.22121 8.29549 9.33327 8.01307V8.01112Z" fill="#342D23"/>
<path d="M31.354 2.33545V8.64035H38.908V12.1444H31.354V24.4055C31.354 24.7074 32.0069 26.2267 32.2646 26.513C33.7097 28.1102 37.1135 27.1324 38.908 26.626V30.0131C36.243 31.5324 30.724 31.5402 28.6431 29.0431C28.2212 28.5367 27.2343 26.3825 27.2343 25.8099V12.1483H22.1982V8.64425H27.2343V2.33935H31.354V2.33545Z" fill="#342D23"/>
<path d="M64.3136 30.3599H60.3084C59.5715 29.31 59.4627 27.8648 59.5047 26.6241L57.3322 28.9575C53.2412 32.3836 41.9664 31.8421 42.0943 24.873C42.2127 18.3519 52.6761 18.8096 56.8092 17.4482C59.4341 16.5834 60.129 14.6746 57.9069 12.7268C54.86 10.0564 48.4571 11.0751 47.0005 15.2005L43.0317 13.8993C45.7482 5.94079 62.6432 5.81225 63.4068 14.8226C63.8363 19.8926 62.6031 25.4262 64.3136 30.3618V30.3599ZM59.2776 19.618C58.0443 19.9335 56.8664 20.3815 55.6179 20.6698C53.1992 21.2288 46.193 21.5638 46.6989 25.3191C46.9089 26.8792 48.6366 27.6408 50.0054 27.7908C55.2056 28.3634 59.9782 25.4398 59.2756 19.616L59.2776 19.618Z" fill="#342D23"/>
</svg>
