<svg width="229" height="143" viewBox="0 0 229 143" fill="none" xmlns="http://www.w3.org/2000/svg">
<path d="M70.7719 39.246L62.0363 41.7016C57.4267 30.8171 42.0912 27.0171 31.7748 31.3446C24.4351 34.4224 21.5433 42.3676 28.1817 48.0161C39.5898 57.7222 72.4869 53.825 74.0595 72.5575C74.9472 83.1406 65.8103 90.3019 56.5884 92.8932C40.3556 97.4551 18.5433 92.1341 11.3311 75.5654L19.9242 72.9412C26.4762 85.7798 44.9309 90.9254 57.6377 84.6233C65.9459 80.5027 67.1294 71.0693 58.413 66.5568C46.024 60.1409 16.7338 61.8387 15.1954 42.6444C13.805 25.285 37.4885 20.5971 50.5048 23.4912C58.876 25.3522 67.8664 30.8801 70.7705 39.246H70.7719Z" fill="white"/>
<path d="M147.214 23.905L175.567 82.284L203.515 23.905H213.241L166.529 119.554H158.173L170.662 93.7907L170.73 93.1727L137.566 24.9246L137.351 23.905H147.214Z" fill="white"/>
<path d="M128.584 30.7566L92.1458 77.6221H120.913V61.4521H130.639C130.668 61.4521 131.05 61.8344 131.05 61.8632V77.6221H144.885C144.914 77.6221 145.296 78.0044 145.296 78.0332V86.5292C145.296 86.558 144.914 86.9403 144.885 86.9403H131.05V105.029H120.365V86.9403H78.7212V79.4035L117.214 30.7566H128.584Z" fill="white"/>
<path d="M216.803 74.3333V88.0366H203.104V74.7444C203.104 74.7156 203.486 74.3333 203.515 74.3333H216.803Z" fill="white"/>
</svg>
