<svg width="159" height="30" viewBox="0 0 159 30" fill="none" xmlns="http://www.w3.org/2000/svg">
<path d="M89.5683 0V15.2704H93.4553V17.786H89.5683V23.1753H86.3885V18.0557L86.1233 17.786H72.4318V15.0022L86.3001 0.00149974H89.5683V0ZM86.3885 4.31054L75.6115 15.2689H86.3885V4.31054Z" fill="#FF8500"/>
<path d="M125.216 6.15792C130.224 5.58258 135.909 7.52285 137.048 13.0695C138.626 20.7571 131.341 24.8549 124.686 23.6638C113.987 21.749 114.676 7.36703 125.216 6.15642V6.15792ZM125.742 9.02862C123.42 9.34775 120.834 11.2805 120.499 13.7587C119.268 22.8892 132.949 23.1334 133.736 15.8997C134.276 10.9284 130.205 8.41582 125.742 9.02862Z" fill="#342D23"/>
<path d="M144.69 6.46657V16.7957C144.69 17.1073 145.165 18.4738 145.36 18.8094C147.271 22.1191 152.878 21.5168 154.552 18.2011C154.672 17.9628 155.113 16.7777 155.113 16.6174V6.46807H158.293C158.518 12.0671 157.711 17.8894 159 23.3551H155.643L155.203 20.841C152.542 24.8504 144.628 25.0122 142.3 20.6672C142.107 20.3076 141.511 18.8978 141.511 18.5951V6.46956H144.691L144.69 6.46657Z" fill="#342D23"/>
<path d="M99.5496 6.46657L105.908 19.5825L111.828 6.46657H115.185L104.319 30H101.228L104.026 23.6653L96.1046 6.46657H99.5496Z" fill="#342D23"/>
<path d="M55.2052 6.64635L61.3025 19.7608L67.5721 6.64635H70.8403L59.9749 30H56.8835L59.6817 23.6653L51.7603 6.64635H55.2052Z" fill="#342D23"/>
<path d="M7.20383 6.16241C10.2539 5.95415 13.6002 7.25615 15.0088 10.1508L12.0914 11.2745C10.8581 8.99266 7.97447 8.05024 5.60659 9.02862C3.68517 9.8227 3.78978 11.7585 5.59184 12.7234C8.53732 14.2996 15.859 13.8396 15.7058 18.7464C15.4907 25.6775 1.94204 25.2055 0 19.3113L2.87771 18.3479C4.6002 20.8216 7.71513 22.1146 10.5943 20.9264C13.0403 19.9181 12.6586 17.795 10.2834 16.9365C7.49264 15.9267 2.31189 15.8353 1.14637 12.3952C-0.167972 8.51471 4.02996 6.38116 7.20383 6.16391V6.16241Z" fill="#342D23"/>
<path d="M24.2003 1.79643V6.64635H30.0309V9.34176H24.2003V18.7734C24.2003 19.0056 24.7043 20.1743 24.9032 20.3945C26.0186 21.6231 28.6458 20.871 30.0309 20.4814V23.087C27.9739 24.2556 23.7141 24.2616 22.108 22.3408C21.7824 21.9513 21.0206 20.2942 21.0206 19.8537V9.34475H17.1335V6.64935H21.0206V1.79943H24.2003V1.79643Z" fill="#342D23"/>
<path d="M49.64 23.3536H46.5487C45.9799 22.5461 45.8959 21.4344 45.9283 20.4799L44.2515 22.2749C41.0938 24.9104 32.3915 24.4938 32.4902 19.133C32.5816 14.1168 40.6577 14.4689 43.8478 13.4216C45.8738 12.7563 46.4101 11.288 44.695 9.78975C42.3433 7.73561 37.4013 8.51921 36.277 11.6926L33.2137 10.6917C35.3105 4.56975 48.3507 4.47087 48.9401 11.4019C49.2716 15.3019 48.3198 19.5585 49.64 23.3551V23.3536ZM45.753 15.0907C44.8011 15.3334 43.892 15.678 42.9283 15.8997C41.0614 16.3297 35.6538 16.5874 36.0442 19.4761C36.2063 20.6762 37.5398 21.262 38.5963 21.3774C42.61 21.8179 46.2937 19.569 45.7515 15.0892L45.753 15.0907Z" fill="#342D23"/>
</svg>
