<svg width="55" height="26" viewBox="0 0 55 26" fill="none" xmlns="http://www.w3.org/2000/svg">
<path d="M15.9109 4.44277L13.5726 5.10194C12.3387 2.18019 8.23377 1.16017 5.47232 2.32181C3.50765 3.14797 2.73359 5.28071 4.51052 6.79694C7.56422 9.40235 16.37 8.35621 16.791 13.3846C17.0286 16.2254 14.5828 18.1477 12.1143 18.8433C7.76919 20.0679 1.93056 18.6395 0 14.192L2.30018 13.4876C4.054 16.9339 8.9939 18.3151 12.3952 16.6234C14.6191 15.5173 14.9359 12.9851 12.6028 11.7738C9.28651 10.0516 1.44618 10.5073 1.0344 5.35501C0.662222 0.695222 7.00173 -0.563158 10.4859 0.213719C12.7267 0.713245 15.1332 2.19711 15.9106 4.44277H15.9109Z" fill="#342D23"/>
<path d="M36.3728 0.324814L43.9623 15.9955L51.4433 0.324814H54.0467L41.5429 26H39.3062L42.6492 19.0843L42.6675 18.9184L33.7902 0.598485L33.7327 0.324814H36.3728Z" fill="#342D23"/>
<path d="M31.3859 2.164L21.6323 14.7441H29.3325V10.4036H31.9359C31.9436 10.4036 32.046 10.5062 32.046 10.514V14.7441H35.7494C35.7571 14.7441 35.8594 14.8467 35.8594 14.8545V17.1351C35.8594 17.1428 35.7571 17.2454 35.7494 17.2454H32.046V22.1009H29.1859V17.2454H18.0388V15.2223L28.3425 2.164H31.3859Z" fill="#FF8500"/>
<path d="M55 13.8613V17.5397H51.3333V13.9716C51.3333 13.9639 51.4356 13.8613 51.4433 13.8613H55Z" fill="#FF8500"/>
</svg>
